<?xml version="1.0" encoding="utf-8"?>
<!-- Generator: Adobe Illustrator 16.0.0, SVG Export Plug-In . SVG Version: 6.00 Build 0)  -->
<!DOCTYPE svg PUBLIC "-//W3C//DTD SVG 1.1//EN" "http://www.w3.org/Graphics/SVG/1.1/DTD/svg11.dtd">
<svg version="1.1" id="Layer_1" xmlns="http://www.w3.org/2000/svg" xmlns:xlink="http://www.w3.org/1999/xlink" x="0px" y="0px"
	 width="612px" height="792px" viewBox="0 0 612 792" enable-background="new 0 0 612 792" xml:space="preserve">
<linearGradient id="SVGID_1_" gradientUnits="userSpaceOnUse" x1="-0.5" y1="382.9995" x2="612.5" y2="382.9995">
	<stop  offset="0" style="stop-color:#FFF33B"/>
	<stop  offset="0.0595" style="stop-color:#FFE029"/>
	<stop  offset="0.1303" style="stop-color:#FFD218"/>
	<stop  offset="0.2032" style="stop-color:#FEC90F"/>
	<stop  offset="0.2809" style="stop-color:#FDC70C"/>
	<stop  offset="0.6685" style="stop-color:#F3903F"/>
	<stop  offset="0.8876" style="stop-color:#ED683C"/>
	<stop  offset="1" style="stop-color:#E93E3A"/>
</linearGradient>
<rect y="299.666" stroke="url(#SVGID_1_)" stroke-miterlimit="10" width="612" height="166.667"/>
<g>
	<defs>
		<rect id="SVGID_2_" y="25.881" width="612" height="792"/>
	</defs>
	<clipPath id="SVGID_3_">
		<use xlink:href="#SVGID_2_"  overflow="visible"/>
	</clipPath>
	<g clip-path="url(#SVGID_3_)">
		<defs>
			<rect id="SVGID_4_" x="-3.501" y="30.881" width="612.001" height="792"/>
		</defs>
		<clipPath id="SVGID_5_">
			<use xlink:href="#SVGID_4_"  overflow="visible"/>
		</clipPath>
		<g clip-path="url(#SVGID_5_)">
			<defs>
				<rect id="SVGID_6_" x="-3.501" y="30.881" width="612.001" height="792"/>
			</defs>
			<clipPath id="SVGID_7_">
				<use xlink:href="#SVGID_6_"  overflow="visible"/>
			</clipPath>
			<path clip-path="url(#SVGID_7_)" fill="#603913" d="M287.367,339.327c-0.016-0.222-0.039-0.438-0.067-0.646
				c0.006-0.247-0.003-0.504-0.044-0.771c-0.053-0.334-0.158-0.663-0.301-0.987c-0.112-0.357-0.308-0.686-0.514-0.943
				c-0.027-0.035-0.057-0.064-0.085-0.098c-0.383-0.553-0.86-1.074-1.448-1.518c-0.841-0.639-1.883-1.113-3.031-1.341
				c-1.146-0.231-2.405-0.235-3.649,0.097c-0.61,0.161-1.229,0.357-1.835,0.643c-0.605,0.289-1.186,0.681-1.682,1.171
				c-1.002,0.968-1.721,2.312-1.903,3.798c-0.097,0.744-0.037,1.479-0.095,2.182c-0.063,0.703-0.207,1.428-0.446,2.107
				c-0.06,0.166-0.129,0.345-0.203,0.468c-0.081,0.132-0.187,0.259-0.315,0.371c-0.254,0.228-0.567,0.419-0.899,0.595
				c-0.683,0.356-1.375,0.719-2.075,1.082c-1.396,0.734-2.824,1.483-4.275,2.246c-1.453,0.762-2.93,1.536-4.43,2.324
				c-0.746,0.379-1.507,0.719-2.308,0.895c-0.804,0.176-1.649,0.194-2.513,0.185c-0.844-0.009-1.705-0.037-2.567,0.047
				c-0.181-0.144-0.401-0.263-0.62-0.331c-0.229-0.075-0.458-0.111-0.677-0.133c-0.435-0.038-0.859-0.045-1.279-0.039
				c-1.674,0.035-3.294,0.238-4.762-0.25c-0.738-0.232-1.445-0.57-2.15-0.914c-0.706-0.348-1.405-0.688-2.098-1.027
				c-1.386-0.678-2.743-1.34-4.065-1.986c-1.326-0.646-2.617-1.274-3.873-1.885c-0.619-0.295-1.238-0.6-1.565-1.076
				c-0.074-0.11-0.138-0.256-0.2-0.406c-0.061-0.149-0.116-0.301-0.165-0.454c-0.101-0.308-0.181-0.619-0.247-0.931
				c-0.138-0.627-0.175-1.238-0.193-1.877c-0.019-0.633-0.086-1.291-0.272-1.894c-0.354-1.215-1.067-2.25-1.929-3.012
				c-0.434-0.38-0.912-0.687-1.403-0.927c-0.495-0.236-0.996-0.401-1.488-0.537c-0.317-0.084-0.633-0.16-0.946-0.227
				c-0.106-0.042-0.237-0.084-0.397-0.119c-0.36-0.088-0.856-0.117-1.435-0.053c-0.024-0.001-0.051-0.001-0.076,0.001
				c-0.489,0.031-0.936,0.153-1.348,0.308c-0.764,0.238-1.588,0.582-2.49,0.836c-0.573,0.158-1.174,0.252-1.815,0.236
				c-0.644-0.008-1.313-0.105-2.013-0.213c-1.393-0.222-2.774-0.395-4.028-0.3c-1.228,0.069-2.356,0.196-3.269,0.476
				c-0.229,0.064-0.442,0.141-0.644,0.221c-0.101,0.037-0.192,0.082-0.286,0.123c-0.09,0.041-0.205,0.09-0.301,0.197
				c-0.093,0.108-0.126,0.246-0.121,0.356c0.002,0.11,0.028,0.203,0.057,0.286c0.059,0.164,0.119,0.287,0.18,0.41
				c0.098,0.197,0.188,0.35,0.261,0.461c0.03,0.064,0.065,0.131,0.122,0.195c0.094,0.113,0.23,0.201,0.381,0.258
				c0.307,0.111,0.657,0.097,1.002,0.078c0.702-0.033,1.543-0.131,2.452-0.322c0.888-0.182,1.886-0.405,2.722,0.046
				c0.418,0.221,0.768,0.557,1.039,0.933c0.272,0.375,0.465,0.79,0.615,1.206c0.301,0.834,0.449,1.651,0.635,2.33
				c0.123,0.472,0.264,0.873,0.401,1.194c0.119,0.844,0.428,1.762,0.999,2.598c0.752,1.119,1.916,2.143,3.429,2.706
				c1.505,0.558,3.284,0.636,5.007,0.167c0.856-0.229,1.719-0.604,2.498-1.078c0.752-0.454,1.483-0.883,2.123-0.803
				c0.311,0.031,0.648,0.193,1.004,0.424c0.352,0.232,0.746,0.523,1.127,0.791c0.769,0.544,1.551,1.096,2.34,1.654
				c4.188,2.955,8.121,5.709,11.41,8.189c-1.976,2.152-3.889,4.24-5.717,6.234c-4.07,4.449-7.736,8.457-10.816,11.822
				c-3.068,3.375-5.547,6.108-7.236,8.021c-0.426,0.476-0.797,0.906-1.115,1.28c-0.318,0.38-0.595,0.675-0.802,0.962
				c-0.058,0.071-0.08,0.169-0.083,0.245c-0.006,0.078-0.001,0.148,0.006,0.215c0.016,0.131,0.047,0.238,0.08,0.32
				c0.044,0.125,0.116,0.175,0.154,0.188v0.002h0.004c0.013,0.004,0.023,0.004,0.023,0.001c0,0-0.002-0.002-0.004-0.002
				c0.077-0.026,0.342-0.204,0.781-0.524c0.507-0.367,1.247-0.922,2.193-1.646c1.894-1.444,4.613-3.556,7.965-6.185
				c3.341-2.637,7.32-5.775,11.738-9.264c2.203-1.75,4.515-3.589,6.914-5.494c0.517-0.414,1.039-0.83,1.563-1.246l0.018-0.029
				c0,0.004,0,0.009,0,0.015c0.068-0.054,0.135-0.108,0.205-0.163c2.564,2.172,4.291,3.586,4.838,3.9l0.226,0.197l1.432-1.795
				c0.067-0.084,0.164-0.139,0.271-0.149c0.109-0.013,0.213,0.017,0.297,0.085l0.527,0.419c0.174,0.14,0.203,0.394,0.063,0.567
				l-1.472,1.847l1.102,0.958l1.487-1.868c0.067-0.084,0.163-0.136,0.271-0.149c0.108-0.01,0.213,0.02,0.297,0.086l0.526,0.42
				c0.175,0.139,0.203,0.394,0.063,0.568l-1.527,1.916l1.038,0.902l1.429-1.793c0.141-0.174,0.395-0.204,0.568-0.064l0.525,0.42
				c0.176,0.139,0.203,0.395,0.064,0.566l-1.469,1.844l1.293,1.127l1.361-1.705c0.066-0.084,0.162-0.137,0.271-0.148
				c0.106-0.01,0.212,0.018,0.296,0.086l0.525,0.42c0.175,0.137,0.203,0.393,0.064,0.566l-1.396,1.754l1.035,0.902l1.301-1.631
				c0.14-0.173,0.395-0.201,0.568-0.064l0.526,0.422c0.173,0.138,0.202,0.391,0.063,0.566l-1.34,1.68l1.295,1.127l1.229-1.54
				c0.14-0.175,0.394-0.203,0.567-0.065l0.525,0.42c0.176,0.139,0.203,0.396,0.064,0.566l-1.27,1.592l1.039,0.904l1.17-1.469
				c0.139-0.174,0.395-0.203,0.568-0.063l0.525,0.418c0.176,0.14,0.203,0.394,0.064,0.567l-1.21,1.519l1.295,1.125l1.099-1.377
				c0.139-0.174,0.394-0.202,0.567-0.063l0.526,0.42c0.175,0.14,0.203,0.392,0.064,0.566l-1.117,1.404l1.059,0.877l0.996-1.254
				c0.141-0.174,0.396-0.203,0.57-0.066l0.526,0.42c0.084,0.068,0.138,0.166,0.149,0.272c0.013,0.106-0.019,0.212-0.086,0.296
				l-1.018,1.277l1.321,1.094l0.88-1.105c0.066-0.084,0.164-0.138,0.271-0.148c0.105-0.01,0.211,0.018,0.297,0.086l0.525,0.42
				c0.174,0.137,0.202,0.393,0.064,0.566l-0.899,1.125l1.06,0.879l0.779-0.979c0.067-0.085,0.164-0.138,0.27-0.148
				c0.109-0.012,0.213,0.018,0.298,0.084l0.526,0.422c0.174,0.138,0.203,0.392,0.063,0.566l-0.796,1l0.328,0.271
				c0.018,0.017,0.031,0.032,0.05,0.051c0.153,0.136,0.308,0.282,0.5,0.444c0.042,0.033,0.099,0.07,0.164,0.1
				c0.008,0.004,0.013,0.01,0.021,0.014c0.076,0.029,0.164,0.018,0.244-0.01c0.141-0.049,0.264-0.133,0.373-0.238
				c0.209-0.209,0.375-0.435,0.567-0.688c0.188-0.253,0.396-0.507,0.595-0.8c0.194-0.291,0.395-0.666,0.348-1.108
				c-0.049-0.442-0.354-0.795-0.631-1.086c-0.281-0.3-0.574-0.612-0.875-0.938c-1.223-1.281-2.615-2.738-4.154-4.35
				c-5.346-5.572-12.524-12.928-20.495-21.148c2.356-1.912,4.712-3.723,7.004-5.459c1.222-0.922,2.421-1.828,3.597-2.715
				c0.588-0.443,1.17-0.881,1.743-1.315c0.289-0.216,0.575-0.435,0.858-0.647c0.285-0.213,0.566-0.436,0.836-0.617
				c0.271-0.182,0.541-0.328,0.812-0.398c0.269-0.068,0.546-0.074,0.83-0.007c0.576,0.123,1.14,0.469,1.729,0.793
				c1.207,0.678,2.537,1.073,3.841,1.161c1.303,0.092,2.592-0.121,3.71-0.62c1.117-0.5,2.044-1.271,2.72-2.157
				c0.339-0.436,0.617-0.932,0.806-1.428c0.192-0.498,0.308-1,0.396-1.48c0.084-0.482,0.144-0.947,0.208-1.39
				C287.382,340.24,287.399,339.756,287.367,339.327 M229.837,340.467c-0.032,0.274-0.111,0.537-0.178,0.799
				c-0.094,0.253-0.176,0.508-0.301,0.744c-0.225,0.478-0.516,0.914-0.861,1.285c-0.672,0.764-1.543,1.258-2.399,1.543
				c-0.865,0.281-1.735,0.301-2.499,0.188c-0.768-0.118-1.436-0.387-1.971-0.699c-0.533-0.316-0.955-0.66-1.252-0.986
				c-0.608-0.645-0.836-1.1-0.887-1.07c0.055-0.025-0.188-0.471-0.367-1.34c-0.097-0.428-0.137-0.973-0.09-1.592
				c0.049-0.619,0.213-1.318,0.557-2.014c0.345-0.693,0.859-1.395,1.586-1.941c0.725-0.539,1.629-0.967,2.64-1.08
				c0.501-0.07,1.027-0.057,1.55,0.031c0.262,0.032,0.519,0.112,0.78,0.18c0.253,0.096,0.511,0.183,0.754,0.314
				c0.993,0.477,1.843,1.309,2.392,2.34C229.82,338.208,230.014,339.381,229.837,340.467 M286.184,343.612
				c-0.235,0.854-0.506,1.282-0.454,1.311c-0.049-0.033-0.305,0.408-0.954,1.01c-0.317,0.306-0.762,0.623-1.313,0.904
				c-0.555,0.278-1.236,0.502-2.012,0.569c-0.769,0.065-1.638-0.013-2.48-0.351c-0.837-0.34-1.674-0.887-2.295-1.694
				c-0.32-0.394-0.582-0.847-0.779-1.339c-0.107-0.242-0.172-0.503-0.249-0.764c-0.05-0.264-0.11-0.531-0.125-0.807
				c-0.106-1.096,0.163-2.254,0.759-3.258c0.614-0.992,1.518-1.766,2.539-2.18c0.252-0.113,0.514-0.184,0.773-0.262
				c0.265-0.053,0.525-0.115,0.792-0.131c0.526-0.055,1.051-0.033,1.547,0.07c1.001,0.178,1.876,0.667,2.563,1.251
				c0.688,0.592,1.158,1.325,1.459,2.037c0.297,0.719,0.414,1.427,0.424,2.048C286.383,342.647,286.309,343.188,286.184,343.612"/>
			
				<rect x="229.574" y="388.489" clip-path="url(#SVGID_7_)" fill="#603913" stroke="#603913" stroke-miterlimit="10" width="46.188" height="22.549"/>
			
				<rect x="247.092" y="374.458" transform="matrix(0.7579 0.6524 -0.6524 0.7579 309.3033 -83.3191)" clip-path="url(#SVGID_7_)" fill="#603913" width="39.642" height="1.252"/>
			<rect x="229.574" y="387.354" clip-path="url(#SVGID_7_)" fill="#603913" width="51.953" height="1.135"/>
		</g>
		<g clip-path="url(#SVGID_5_)">
			
				<text transform="matrix(1 0 0 1.025 173.084 404.7764)" fill="#281B4F" stroke="#939598" stroke-miterlimit="10" font-family="'Algerian'" font-size="60.5459">b</text>
		</g>
		<g clip-path="url(#SVGID_5_)">
			
				<text transform="matrix(1 0 0 1.025 295.8105 403.2246)" fill="#281B4F" stroke="#939598" stroke-miterlimit="10" font-family="'Algerian'" font-size="60.5459">rber</text>
		</g>
		<g clip-path="url(#SVGID_5_)">
			<defs>
				<rect id="SVGID_8_" x="-3.501" y="30.881" width="612.001" height="792"/>
			</defs>
			<clipPath id="SVGID_9_">
				<use xlink:href="#SVGID_8_"  overflow="visible"/>
			</clipPath>
			<path clip-path="url(#SVGID_9_)" fill="#3C2415" d="M236.658,384.135c0.771,0.734,1.677,1.334,2.664,1.754
				c0.525,0.224,1.077,0.4,1.639,0.518c0.449,0.094,0.903,0.143,1.36,0.174c0.917,0.063,1.854-0.045,2.743-0.261
				c1.248-0.304,2.406-0.867,3.432-1.624c0.911-0.673,1.723-1.542,2.279-2.52c0.072-0.131,0.139-0.266,0.197-0.401
				c0.276,0.647,0.725,1.237,1.199,1.758c0.506,0.558,1.084,1.058,1.717,1.474c1.354,0.891,2.916,1.438,4.545,1.561
				c1.058,0.08,2.135-0.018,3.152-0.311c1.334-0.384,2.565-1.074,3.577-2.004c1.041-0.957,1.843-2.218,2.181-3.58
				c0.071-0.295,0.153-0.602-0.063-0.859c-0.204-0.243-0.572-0.303-0.847-0.133c-0.127,0.08-0.234,0.201-0.349,0.3
				c-0.144,0.122-0.294,0.237-0.448,0.347c-0.297,0.209-0.611,0.393-0.94,0.547c-0.667,0.313-1.392,0.512-2.132,0.555
				c-0.737,0.041-1.51-0.055-2.174-0.383c-0.674-0.332-1.211-0.881-1.629-1.488c-0.396-0.577-0.637-1.244-1.099-1.78
				c-0.741-0.86-1.858-1.367-3.009-1.373c-1.256-0.006-2.473,0.592-3.215,1.585c-0.188,0.251-0.344,0.523-0.467,0.813
				c-0.594-1.408-2.021-2.363-3.573-2.396c-1.414-0.029-2.769,0.701-3.492,1.889c-0.239,0.389-0.424,0.805-0.674,1.188
				c-0.249,0.381-0.554,0.737-0.896,1.042c-0.67,0.593-1.531,0.871-2.424,0.908c-0.91,0.037-1.818-0.166-2.64-0.547
				c-0.397-0.186-0.775-0.412-1.124-0.674c-0.18-0.137-0.352-0.283-0.518-0.437c-0.14-0.126-0.311-0.204-0.504-0.192
				c-0.365,0.021-0.646,0.346-0.607,0.7c0.023,0.198,0.08,0.396,0.134,0.585c0.058,0.203,0.124,0.402,0.2,0.598
				c0.313,0.799,0.777,1.537,1.345,2.187C236.345,383.819,236.499,383.98,236.658,384.135"/>
			<g clip-path="url(#SVGID_9_)">
				<text transform="matrix(2.0313 0 0 1 227.998 433.9434)" fill="#603913" font-family="'EngraversMT'" font-size="14.0242">Comfot</text>
			</g>
		</g>
		<g clip-path="url(#SVGID_5_)">
			<defs>
				<path id="SVGID_10_" d="M223.869,358.758l-1.971-5.347h1.696l1.582,7.004l-5.261-1.708l1.279,4.148l-2.136-4.889l4.212,1.274
					l0.871,0.263L223.869,358.758z M223.507,353.022h-2.236l2.156,5.852l-5.143-1.557l4.09,9.369l-1.191-6.515l5.413,1.859
					l-1.331-9.009H223.507z"/>
			</defs>
			<clipPath id="SVGID_11_">
				<use xlink:href="#SVGID_10_"  overflow="visible"/>
			</clipPath>
			
				<linearGradient id="SVGID_12_" gradientUnits="userSpaceOnUse" x1="0.7012" y1="-89.792" x2="1.7012" y2="-89.792" gradientTransform="matrix(8.312 0 0 -8.312 212.4585 -386.4985)">
				<stop  offset="0" style="stop-color:#FFF33B"/>
				<stop  offset="0.0595" style="stop-color:#FFE029"/>
				<stop  offset="0.1303" style="stop-color:#FFD218"/>
				<stop  offset="0.2032" style="stop-color:#FEC90F"/>
				<stop  offset="0.2809" style="stop-color:#FDC70C"/>
				<stop  offset="0.6685" style="stop-color:#F3903F"/>
				<stop  offset="0.8876" style="stop-color:#ED683C"/>
				<stop  offset="1" style="stop-color:#E93E3A"/>
			</linearGradient>
			<rect x="218.285" y="353.022" clip-path="url(#SVGID_11_)" fill="url(#SVGID_12_)" width="8.312" height="13.664"/>
		</g>
		<g clip-path="url(#SVGID_5_)">
			<defs>
				<path id="SVGID_13_" d="M283.771,359.01l-1.969-5.348h1.695l1.582,7.005l-5.26-1.708l1.278,4.15l-2.135-4.891l4.212,1.274
					l0.871,0.263L283.771,359.01z M283.41,353.274h-2.234l2.156,5.852l-5.145-1.557l4.092,9.369l-1.191-6.515l5.412,1.859
					l-1.33-9.009H283.41z"/>
			</defs>
			<clipPath id="SVGID_14_">
				<use xlink:href="#SVGID_13_"  overflow="visible"/>
			</clipPath>
			
				<linearGradient id="SVGID_15_" gradientUnits="userSpaceOnUse" x1="0.7002" y1="-89.792" x2="1.7002" y2="-89.792" gradientTransform="matrix(8.312 0 0 -8.312 272.3647 -386.2485)">
				<stop  offset="0" style="stop-color:#FFF33B"/>
				<stop  offset="0.0595" style="stop-color:#FFE029"/>
				<stop  offset="0.1303" style="stop-color:#FFD218"/>
				<stop  offset="0.2032" style="stop-color:#FEC90F"/>
				<stop  offset="0.2809" style="stop-color:#FDC70C"/>
				<stop  offset="0.6685" style="stop-color:#F3903F"/>
				<stop  offset="0.8876" style="stop-color:#ED683C"/>
				<stop  offset="1" style="stop-color:#E93E3A"/>
			</linearGradient>
			<rect x="278.187" y="353.274" clip-path="url(#SVGID_14_)" fill="url(#SVGID_15_)" width="8.313" height="13.664"/>
		</g>
		<g clip-path="url(#SVGID_5_)">
			<defs>
				<path id="SVGID_16_" d="M254.095,331.762l-1.969-5.347h1.697l1.58,7.003l-5.261-1.708l1.279,4.151l-2.134-4.891l4.211,1.275
					l0.871,0.264L254.095,331.762z M253.734,326.026H251.5l2.156,5.853l-5.144-1.557l4.09,9.368l-1.19-6.514l5.412,1.859l-1.33-9.01
					H253.734z"/>
			</defs>
			<clipPath id="SVGID_17_">
				<use xlink:href="#SVGID_16_"  overflow="visible"/>
			</clipPath>
			
				<linearGradient id="SVGID_18_" gradientUnits="userSpaceOnUse" x1="0.7002" y1="-89.791" x2="1.7002" y2="-89.791" gradientTransform="matrix(8.312 0 0 -8.312 242.689 -413.4907)">
				<stop  offset="0" style="stop-color:#FFF33B"/>
				<stop  offset="0.0595" style="stop-color:#FFE029"/>
				<stop  offset="0.1303" style="stop-color:#FFD218"/>
				<stop  offset="0.2032" style="stop-color:#FEC90F"/>
				<stop  offset="0.2809" style="stop-color:#FDC70C"/>
				<stop  offset="0.6685" style="stop-color:#F3903F"/>
				<stop  offset="0.8876" style="stop-color:#ED683C"/>
				<stop  offset="1" style="stop-color:#E93E3A"/>
			</linearGradient>
			<rect x="248.512" y="326.026" clip-path="url(#SVGID_17_)" fill="url(#SVGID_18_)" width="8.312" height="13.664"/>
		</g>
	</g>
</g>
</svg>
